<svg width="780" height="535" viewBox="0 0 780 535" fill="none" xmlns="http://www.w3.org/2000/svg">
<path d="M77.73 420.18C14.89 405.64 -11.95 337.08 10.12 280.9C10.57 279.76 10.04 278.48 8.91002 278.01C10.04 278.48 11.32 277.95 11.81 276.83C37.17 219.05 99.86 206.09 168.18 202.53C185.28 201.64 202.64 201.34 219.75 201.04L220.06 201.03C237.26 200.73 254.21 200.43 270.32 199.54C302.44 197.75 331.62 193.56 352.97 181.92C396.84 158.01 479.42 72.06 516.33 40.7C563.61 2.73 626.54 2.5 626.93 2.5C765.74 2.5 854.37 204.94 680.53 277.87C645.9 292.4 595.79 286.43 554.6 434.73C546.19 464.21 532.34 490.99 512.14 508.9C492.03 526.73 465.47 535.92 431.14 530.05C395.77 524 375.08 507.43 355.96 487.16C351.2 482.11 346.51 476.8 341.71 471.36C327.68 455.46 312.64 438.43 291.77 423.42C290.76 422.7 289.35 422.94 288.64 423.96L288.52 424.13L288.64 423.96C289.35 422.94 289.1 421.53 288.08 420.83C251.55 396.15 215.46 399.9 180.6 407.76C173.97 409.25 167.44 410.88 160.95 412.5C149.96 415.24 139.13 417.94 128.26 419.88C111.08 422.95 94.28 424.01 77.73 420.18Z" stroke="url(#paint0_linear_663_673)" stroke-width="5"/>
<defs>
<linearGradient gradientTransform="rotate(429.663 480.739 210.639 65.3001 480.739 210.639)" id="paint0_linear_663_673" x1="548.848" y1="344.485" x2="170.212" y2="63.804" gradientUnits="userSpaceOnUse">
<stop stop-color="#1F00DE"/>
<stop offset="1" stop-color="#00FFD1"/>
<animateTransform attributeName="gradientTransform" type="rotate" from="429.663 480.739 210.639" to="65.3001 480.739 210.639" dur="5s" repeatCount="indefinite" />
</linearGradient>
</defs>
</svg>
