<svg width="180" height="180" viewBox="0 0 180 180" fill="none" xmlns="http://www.w3.org/2000/svg">
<path fill-rule="evenodd" clip-rule="evenodd" d="M65.5 112.246C86.763 112.246 104 96.0864 104 76.1523C104 56.2183 86.763 40.0586 65.5 40.0586C44.237 40.0586 27 56.2183 27 76.1523C27 85.402 30.7113 93.839 36.8139 100.226C34.753 103.763 32.3052 106.678 28.6757 110.389C35.8505 110.11 40.7311 109.395 45.0934 106.764C51.0095 110.238 58.0046 112.246 65.5 112.246Z" fill="white"/>
<path d="M36.8139 100.226L38.5419 101.233C38.9907 100.463 38.8757 99.4887 38.26 98.8443L36.8139 100.226ZM28.6757 110.389L27.2458 108.991C26.6732 109.576 26.5155 110.452 26.8477 111.2C27.1799 111.949 27.9349 112.419 28.7533 112.387L28.6757 110.389ZM45.0934 106.764L46.106 105.04C45.4736 104.668 44.6887 104.673 44.0607 105.052L45.0934 106.764ZM102 76.1523C102 94.8622 85.7819 110.246 65.5 110.246V114.246C87.744 114.246 106 97.3106 106 76.1523H102ZM65.5 42.0586C85.7819 42.0586 102 57.4425 102 76.1523H106C106 54.9941 87.744 38.0586 65.5 38.0586V42.0586ZM29 76.1523C29 57.4425 45.2181 42.0586 65.5 42.0586V38.0586C43.256 38.0586 25 54.9941 25 76.1523H29ZM38.26 98.8443C32.4868 92.8022 29 84.8508 29 76.1523H25C25 85.9532 28.9357 94.8758 35.3679 101.608L38.26 98.8443ZM30.1056 111.787C33.788 108.022 36.3629 104.972 38.5419 101.233L35.0859 99.219C33.1431 102.553 30.8223 105.333 27.2458 108.991L30.1056 111.787ZM44.0607 105.052C40.1619 107.402 35.7248 108.114 28.5981 108.39L28.7533 112.387C35.9762 112.107 41.3003 111.387 46.126 108.477L44.0607 105.052ZM65.5 110.246C58.3644 110.246 51.7184 108.335 46.106 105.04L44.0807 108.489C50.3006 112.141 57.6448 114.246 65.5 114.246V110.246Z" fill="#242435"/>
<path fill-rule="evenodd" clip-rule="evenodd" d="M67.7555 63.4084C70.5916 60.5722 75.1899 60.5722 78.0261 63.4084C80.8622 66.2445 80.8622 70.8428 78.0261 73.6789L66.6006 85.1044L66.6 85.1051L66.2474 85.4576L63.0276 88.6775C60.1914 91.5136 55.5931 91.5136 52.757 88.6775C49.9208 85.8414 49.9208 81.243 52.757 78.4069L55.2282 75.9357L56.3294 74.8345L62.3033 68.8606L67.7555 63.4084Z" fill="#B9F332"/>
<path d="M74.2856 77.0837L77.858 73.5114C80.6941 70.6752 80.6941 66.0769 77.858 63.2408C75.0218 60.4046 70.4235 60.4046 67.5874 63.2408C67.5874 63.2408 65.3229 65.5052 64.015 66.8131" stroke="#242435" stroke-width="4" stroke-linecap="round" stroke-linejoin="round"/>
<path d="M56.1607 74.6663L52.5883 78.2386C49.7522 81.0748 49.7522 85.6731 52.5883 88.5092C55.4245 91.3454 60.0228 91.3454 62.8589 88.5092C62.8589 88.5092 65.1234 86.2448 66.4313 84.9369" stroke="#242435" stroke-width="4" stroke-linecap="round" stroke-linejoin="round"/>
<path d="M72.1445 68.9531L58.3016 82.7961" stroke="#242435" stroke-width="4" stroke-linecap="round"/>
<rect x="119.848" y="124.539" width="25.1473" height="16.7796" rx="5" transform="rotate(-45 119.848 124.539)" fill="#B9F332"/>
<path d="M143.936 122.16L135.252 130.844L144.763 140.355L153.447 131.671L143.936 122.16Z" fill="#B9F332"/>
<rect x="122.676" y="124.539" width="21.1473" height="12.7796" rx="3" transform="rotate(-45 122.676 124.539)" stroke="#242435" stroke-width="4" stroke-linejoin="round"/>
<path d="M143.321 97.6603C143.321 115.146 129.146 129.321 111.66 129.321C94.1748 129.321 80 115.146 80 97.6603C80 80.1748 94.1748 66 111.66 66C129.146 66 143.321 80.1748 143.321 97.6603Z" fill="white" stroke="#242435" stroke-width="4"/>
<ellipse cx="111.661" cy="97.6597" rx="26.3824" ry="26.3824" fill="#B9F332"/>
<path d="M136.043 97.6597C136.043 111.126 125.127 122.042 111.661 122.042C98.1947 122.042 87.2783 111.126 87.2783 97.6597C87.2783 84.1937 98.1947 73.2773 111.661 73.2773C118.181 73.2773 124.099 75.8339 128.476 80.0033C133.14 84.4469 136.043 90.7126 136.043 97.6597Z" stroke="#242435" stroke-width="4"/>
<path d="M143.439 122.16L153.447 132.167" stroke="#242435" stroke-width="4" stroke-linecap="round" stroke-linejoin="round"/>
<path d="M135.252 131.258L144.349 140.355" stroke="#242435" stroke-width="4" stroke-linecap="round" stroke-linejoin="round"/>
</svg>
