<svg width="180" height="180" viewBox="0 0 180 180" fill="none" xmlns="http://www.w3.org/2000/svg">
<path d="M69.5 74H36C30.4772 74 26 78.4772 26 84V123.29C26 128.812 30.4772 133.29 36 133.29H42.7956V146.465L58.0349 133.29H111C116.523 133.29 121 128.812 121 123.29V117.86" stroke="#242435" stroke-width="4" stroke-linecap="round" stroke-linejoin="round"/>
<path d="M101.201 45.112C105.946 37.945 116.467 37.945 121.212 45.112L151.015 90.1253C156.297 98.1024 150.577 108.75 141.01 108.75H81.4032C71.8361 108.75 66.1159 98.1024 71.3975 90.1253L101.201 45.112Z" fill="white" stroke="#242435" stroke-width="4"/>
<path d="M107.027 49.8481C109.002 46.8411 113.411 46.8411 115.386 49.8481L144.078 93.5378C146.262 96.8628 143.877 101.283 139.899 101.283H82.5137C78.5358 101.283 76.1507 96.8628 78.3343 93.5378L107.027 49.8481Z" fill="#B9F332"/>
<path d="M124.211 63.7137L115.367 49.9572C113.411 46.9133 108.968 46.8917 106.982 49.9163L78.3343 93.5378C76.1507 96.8628 78.5357 101.283 82.5136 101.283H139.848C143.836 101.283 146.219 96.8423 144.015 93.5187L130.954 73.8284" stroke="#242435" stroke-width="4" stroke-linecap="round" stroke-linejoin="round"/>
<path d="M111.688 64.6797L111.688 83.9457" stroke="#242435" stroke-width="5" stroke-linecap="round" stroke-linejoin="round"/>
<circle cx="111.688" cy="90.6883" r="1.92661" fill="#242435" stroke="#242435"/>
</svg>
