<svg width="180" height="180" viewBox="0 0 180 180" fill="none" xmlns="http://www.w3.org/2000/svg">
<path d="M28.0791 90.5664C28.0791 90.5664 52.8473 130.055 89.9996 130.055C127.152 130.055 151.92 90.5664 151.92 90.5664C151.92 90.5664 127.152 51.0781 89.9996 51.0781C52.8473 51.0781 28.0791 90.5664 28.0791 90.5664Z" fill="white"/>
<path d="M89.9998 119.662C105.959 119.662 118.896 106.635 118.896 90.5654C118.896 74.4957 105.959 61.4688 89.9998 61.4688C74.0408 61.4688 61.1035 74.4957 61.1035 90.5654C61.1035 106.635 74.0408 119.662 89.9998 119.662Z" fill="#B9F332"/>
<path d="M106.894 88.1366C105.908 81.1393 100.618 75.4315 93.7159 73.9334C92.5024 73.6679 91.2509 73.5352 89.9994 73.5352C88.3118 73.5352 86.6622 73.7817 85.0694 74.2557C84.5574 74.4075 84.1592 74.7488 83.9317 75.2418C83.6662 75.7917 83.6473 76.4744 83.8938 77.0812C84.7471 79.2051 84.2541 81.6323 82.6423 83.2442C81.5615 84.3251 80.1394 84.9129 78.6224 84.9129C77.8829 84.9129 77.1624 84.7802 76.4798 84.4958C76.1954 84.382 75.892 84.3251 75.5886 84.3251C75.2662 84.3251 74.9249 84.4009 74.6405 84.5337C74.1475 84.7612 73.8062 85.1595 73.6545 85.6715C72.8202 88.44 72.7064 91.4362 73.3321 94.3186C74.8301 101.221 80.5376 106.512 87.5344 107.498C88.3498 107.612 89.1841 107.668 89.9994 107.668C94.5502 107.668 98.8356 105.886 102.059 102.662C105.889 98.8507 107.653 93.5411 106.894 88.1366Z" fill="white"/>
<circle cx="67.5" cy="68.5" r="5.5" fill="white"/>
<path d="M73.3321 94.3186C72.7064 91.4362 72.8202 88.44 73.6545 85.6715C73.8062 85.1595 74.1475 84.7612 74.6405 84.5337C74.9249 84.4009 75.2662 84.3251 75.5886 84.3251C75.892 84.3251 76.1954 84.382 76.4798 84.4958C77.1624 84.7802 77.8829 84.9129 78.6224 84.9129C80.1394 84.9129 81.5615 84.3251 82.6423 83.2442C84.2541 81.6323 84.7471 79.2051 83.8938 77.0812C83.6473 76.4744 83.6662 75.7917 83.9317 75.2418C84.1592 74.7488 84.5574 74.4075 85.0694 74.2557C86.6622 73.7817 88.3118 73.5352 89.9994 73.5352C91.2509 73.5352 93.7159 73.9334 93.7159 73.9334C100.618 75.4315 105.908 81.1393 106.894 88.1366C107.653 93.5411 105.889 98.8507 102.059 102.662C98.8356 105.886 94.5502 107.668 89.9994 107.668" stroke="#242435" stroke-width="4" stroke-linecap="round"/>
<path d="M90 49C52.1459 49 27.3777 87.8024 26.3251 89.4651C25.8916 90.1509 25.8916 91.003 26.3251 91.6889C26.3664 91.7512 27.3984 93.3931 29.3592 95.991C30.0403 96.9055 31.3406 97.0925 32.2488 96.3859C33.157 95.7001 33.3427 94.3907 32.641 93.4763C31.7534 92.25 31.0517 91.2524 30.5563 90.5666C34.8908 84.2485 57.8633 53.1567 90 53.1567C122.095 53.1567 145.089 84.2485 149.444 90.5666C148.969 91.2524 148.267 92.25 147.359 93.4763C146.678 94.3907 146.843 95.7001 147.751 96.3859C148.123 96.6769 148.556 96.8016 148.99 96.8016C149.609 96.8016 150.228 96.5106 150.641 95.9702C152.581 93.3723 153.613 91.7512 153.675 91.6681C154.108 90.9823 154.108 90.1301 153.675 89.4443C152.622 87.8024 127.854 49 90 49Z" fill="#242435"/>
<path d="M116.896 90.5654C116.896 105.543 104.841 117.662 89.9998 117.662C75.1584 117.662 63.1035 105.543 63.1035 90.5654C63.1035 75.5873 75.1584 63.4688 89.9998 63.4688C104.841 63.4688 116.896 75.5873 116.896 90.5654Z" stroke="#242435" stroke-width="4"/>
<path d="M151.867 90.5995C151.867 90.5995 129.659 51.1328 90.5292 51.1328C51.3999 51.1328 28.1338 90.5995 28.1338 90.5995" stroke="#242435" stroke-width="4" stroke-linecap="round" stroke-linejoin="round"/>
<path d="M151.867 90.6016C151.867 90.6016 149.734 93.2682 148.667 94.8682" stroke="#242435" stroke-width="4" stroke-linecap="round" stroke-linejoin="round"/>
<path d="M28.1338 90.6016C28.1338 90.6016 29.2005 92.2016 31.3338 94.8682" stroke="#242435" stroke-width="4" stroke-linecap="round" stroke-linejoin="round"/>
<path d="M37.7334 103.398C71.8557 139.491 109.769 138.413 142.267 103.398" stroke="#242435" stroke-width="4" stroke-linecap="round" stroke-linejoin="round"/>
<path d="M27.5996 102.867H151.866" stroke="#242435" stroke-width="4" stroke-linecap="round" stroke-linejoin="round"/>
</svg>
