<svg width="160" height="160" viewBox="0 0 160 160" fill="none" xmlns="http://www.w3.org/2000/svg">
<path d="M34.0625 125.938C28.3125 120.188 32.125 108.125 29.1875 101.062C26.25 94 15 87.8125 15 80C15 72.1875 26.125 66.25 29.1875 58.9375C32.25 51.625 28.3125 39.8125 34.0625 34.0625C39.8125 28.3125 51.875 32.125 58.9375 29.1875C66 26.25 72.1875 15 80 15C87.8125 15 93.75 26.125 101.062 29.1875C108.375 32.25 120.188 28.3125 125.938 34.0625C131.687 39.8125 127.875 51.875 130.813 58.9375C133.75 66 145 72.1875 145 80C145 87.8125 133.875 93.75 130.813 101.062C127.75 108.375 131.687 120.188 125.938 125.938C120.188 131.687 108.125 127.875 101.062 130.813C94 133.75 87.8125 145 80 145C72.1875 145 66.25 133.875 58.9375 130.813C51.625 127.75 39.8125 131.687 34.0625 125.938Z" fill="#B9F332" stroke="#242435" stroke-width="10" stroke-linecap="round" stroke-linejoin="round"/>
<path d="M80 50V85" stroke="#242435" stroke-width="10" stroke-linecap="round" stroke-linejoin="round"/>
<path d="M80 112C83.3137 112 86 109.314 86 106C86 102.686 83.3137 100 80 100C76.6863 100 74 102.686 74 106C74 109.314 76.6863 112 80 112Z" fill="#242435"/>
</svg>
