<svg width="30" height="30" viewBox="0 0 30 30" fill="none" xmlns="http://www.w3.org/2000/svg">
<path d="M14.9995 29.4659C22.9885 29.4659 29.4649 22.9895 29.4649 15.0005C29.4649 7.01152 22.9885 0.535156 14.9995 0.535156C7.01054 0.535156 0.53418 7.01152 0.53418 15.0005C0.53418 22.9895 7.01054 29.4659 14.9995 29.4659Z" fill="#242435"/>
<path d="M15 0C6.72797 0 0 6.72797 0 15C0 23.272 6.72797 30 15 30C23.272 30 30 23.272 30 15C30 6.72797 23.2699 0 15 0ZM15 28.9307C7.31822 28.9307 1.06929 22.6818 1.06929 15C1.06929 7.31822 7.31822 1.06929 15 1.06929C22.6818 1.06929 28.9307 7.31822 28.9307 15C28.9307 22.6818 22.6818 28.9307 15 28.9307Z" fill="white"/>
<path d="M18.4585 0.436709C18.2019 0.291286 17.8746 0.381106 17.7292 0.639874C17.5838 0.896504 17.6758 1.22371 17.9324 1.36913C21.5316 3.40292 23.9504 8.88196 23.9504 15.0026C23.9504 21.1146 21.538 26.5894 17.9452 28.6275C17.6886 28.7729 17.5988 29.1001 17.7442 29.3567C17.8426 29.53 18.0243 29.6283 18.2104 29.6283C18.3002 29.6283 18.39 29.6069 18.4734 29.5578C22.3892 27.3358 25.0196 21.4846 25.0196 15.0026C25.0196 8.50557 22.3828 2.65228 18.4585 0.436709Z" fill="white"/>
<path d="M12.0549 28.627C8.46208 26.5889 6.04976 21.112 6.04976 14.9999C6.04976 8.9114 8.45138 3.44305 12.025 1.39215C12.2816 1.24459 12.3693 0.917387 12.2217 0.662896C12.0741 0.406267 11.7469 0.318585 11.4924 0.466147C7.59595 2.70096 4.98047 8.54143 4.98047 14.9999C4.98047 21.4841 7.61092 27.3331 11.5288 29.5573C11.6122 29.6043 11.702 29.6278 11.7918 29.6278C11.9779 29.6278 12.1597 29.5295 12.2581 29.3562C12.4013 29.0975 12.3115 28.7724 12.0549 28.627Z" fill="white"/>
<path d="M26.1636 23.7687C23.2188 21.7991 19.2539 20.7148 14.9981 20.7148C10.7744 20.7148 6.83086 21.7863 3.89245 23.7302C3.64651 23.8928 3.57808 24.2243 3.74061 24.4702C3.90314 24.7161 4.23462 24.7846 4.48056 24.622C7.24574 22.7914 10.9818 21.7841 14.996 21.7841C18.9823 21.7841 22.836 22.832 25.567 24.6584C25.6589 24.7204 25.7616 24.7482 25.8642 24.7482C26.0374 24.7482 26.2064 24.6648 26.309 24.5108C26.4759 24.267 26.4096 23.9334 26.1636 23.7687Z" fill="white"/>
<path d="M26.2515 5.53186C26.0889 5.28592 25.7575 5.21748 25.5115 5.38002C22.7463 7.2085 19.0124 8.21577 15.0004 8.21577C10.9842 8.21577 7.2502 7.2085 4.48501 5.37788C4.23908 5.21534 3.9076 5.28164 3.74506 5.52972C3.58253 5.77565 3.64883 6.10713 3.8969 6.26967C6.83531 8.21363 10.7789 9.28506 15.0025 9.28506C19.222 9.28506 23.1655 8.21577 26.1039 6.2718C26.3477 6.10927 26.4161 5.77779 26.2515 5.53186Z" fill="white"/>
<path d="M14.3581 29.037C12.8269 27.2962 11.7597 21.5242 11.7597 14.9994C11.7597 8.57079 12.8119 2.81801 14.3153 1.01305C14.5035 0.786356 14.4736 0.448461 14.2469 0.260266C14.0202 0.0720705 13.6823 0.102011 13.4941 0.3287C11.8175 2.3411 10.6904 8.23717 10.6904 14.9994C10.6904 21.8663 11.841 27.7923 13.5561 29.7427C13.6609 29.8625 13.8085 29.9245 13.9582 29.9245C14.0844 29.9245 14.2084 29.8796 14.311 29.7919C14.5313 29.5973 14.5527 29.2594 14.3581 29.037Z" fill="white"/>
<path d="M16.5053 0.3287C16.315 0.102011 15.9792 0.0720705 15.7525 0.260266C15.5258 0.448461 15.4959 0.786356 15.6841 1.01305C17.1897 2.82015 18.2418 8.57079 18.2418 14.9994C18.2418 21.5391 17.1704 27.3154 15.6349 29.0456C15.4382 29.2658 15.4596 29.6037 15.6798 29.8005C15.7825 29.8903 15.9087 29.9352 16.0348 29.9352C16.1824 29.9352 16.33 29.8753 16.4347 29.7556C18.1542 27.8159 19.3111 21.8877 19.3111 15.0015C19.309 8.23931 18.182 2.34324 16.5053 0.3287Z" fill="white"/>
<path d="M29.0849 14.4648H0.915504C0.62038 14.4648 0.380859 14.7044 0.380859 14.9995C0.380859 15.2946 0.62038 15.5341 0.915504 15.5341H29.0849C29.38 15.5341 29.6195 15.2946 29.6195 14.9995C29.6195 14.7044 29.38 14.4648 29.0849 14.4648Z" fill="white"/>
</svg>
